<?xml version="1.0" encoding="UTF-8"?>
<svg version="1.1" xmlns="http://www.w3.org/2000/svg" width="81" height="80">
<path d="M0 0 C26.73 0 53.46 0 81 0 C81 26.4 81 52.8 81 80 C54.27 80 27.54 80 0 80 C0 53.6 0 27.2 0 0 Z " fill="#080B0B" transform="translate(0,0)"/>
<path d="M0 0 C4.44526548 2.91156687 8.41451424 6.35547863 9.65234375 11.6953125 C9.84115859 16.56345175 8.8919137 20.31712032 6.1171875 24.38671875 C0.188844 30.05730818 -4.58706507 31.77688853 -12.6953125 31.76171875 C-13.40365234 31.76300781 -14.11199219 31.76429687 -14.84179688 31.765625 C-20.56788585 31.64973359 -24.16825501 30.52975708 -28.8828125 27.38671875 C-28.68359375 25.5625 -28.68359375 25.5625 -27.8828125 23.38671875 C-25.73828125 21.8671875 -25.73828125 21.8671875 -23.0703125 20.57421875 C-22.19761719 20.13464844 -21.32492188 19.69507812 -20.42578125 19.2421875 C-17.62912185 18.30137581 -16.55072052 18.19095448 -13.8828125 19.38671875 C-11.95009502 21.22280036 -10.51229316 23.25934122 -8.8828125 25.38671875 C-9.46456095 20.07803385 -9.46456095 20.07803385 -11.8828125 15.38671875 C-9.01556564 15.96016812 -8.021361 16.24817025 -5.8828125 18.38671875 C-5.5528125 19.70671875 -5.2228125 21.02671875 -4.8828125 22.38671875 C-3.2328125 18.09671875 -1.5828125 13.80671875 0.1171875 9.38671875 C-1.2028125 10.37671875 -2.5228125 11.36671875 -3.8828125 12.38671875 C-4.8728125 12.05671875 -5.8628125 11.72671875 -6.8828125 11.38671875 C-6.2228125 10.39671875 -5.5628125 9.40671875 -4.8828125 8.38671875 C-4.29947917 5.88671875 -4.29947917 5.88671875 -4.8828125 3.38671875 C-7.57135309 1.09355178 -9.44183901 0.4407155 -12.9453125 0.01171875 C-16.25461945 0.43418347 -17.65657106 0.9036033 -19.8828125 3.38671875 C-20.80047136 5.79750102 -20.80047136 5.79750102 -19.8828125 8.38671875 C-17.72542524 10.35138655 -15.38123281 11.88894127 -12.8828125 13.38671875 C-14.6875 13.98828125 -14.6875 13.98828125 -16.8828125 14.38671875 C-20.4440104 12.53489584 -22.44622833 11.25988708 -24.2578125 7.63671875 C-24.4640625 6.89421875 -24.6703125 6.15171875 -24.8828125 5.38671875 C-25.30053054 8.7187206 -25.30053054 8.7187206 -24.8828125 12.38671875 C-22.48422206 14.72302623 -22.48422206 14.72302623 -19.8828125 16.38671875 C-19.8828125 17.04671875 -19.8828125 17.70671875 -19.8828125 18.38671875 C-21.29032471 19.25588762 -22.7092646 20.10657024 -24.1328125 20.94921875 C-24.92171875 21.42488281 -25.710625 21.90054687 -26.5234375 22.390625 C-28.8828125 23.38671875 -28.8828125 23.38671875 -31.0546875 23.2890625 C-32.8828125 22.38671875 -32.8828125 22.38671875 -34.1328125 20.625 C-35.72305097 15.87913205 -35.06884024 10.78140835 -32.859375 6.3203125 C-25.44704639 -3.59849717 -10.60108548 -5.37599531 0 0 Z " fill="#0D0707" transform="translate(53.8828125,6.61328125)"/>
<path d="M0 0 C3.75778943 2.94655449 6.69758015 6.02439642 7.35546875 10.8671875 C7.5701507 16.14478536 6.85032829 20.19894357 4.07421875 24.796875 C-3.58443009 31.9913633 -10.82309382 33.37248285 -21.03515625 33.1015625 C-28.36444298 32.52758221 -31.97626875 30.06298502 -36.86328125 24.734375 C-40.31488338 20.63805448 -41.310914 17.35166497 -41.19140625 11.9140625 C-40.59103416 7.12874378 -38.46991253 4.07144257 -34.8671875 1.09765625 C-23.49358138 -6.82359051 -11.9902226 -7.49084901 0 0 Z M-35.55078125 3.921875 C-38.66998449 8.11697733 -39.34290396 12.65236157 -38.92578125 17.796875 C-37.68529873 20.85101656 -37.68529873 20.85101656 -35.92578125 22.796875 C-31.17096479 22.22053361 -27.95529913 20.24618979 -23.92578125 17.796875 C-24.60216136 14.68871715 -24.60216136 14.68871715 -26.98828125 13.546875 C-28.92578125 11.796875 -28.92578125 11.796875 -29.17578125 8.109375 C-29.09328125 7.01625 -29.01078125 5.923125 -28.92578125 4.796875 C-28.71953125 5.539375 -28.51328125 6.281875 -28.30078125 7.046875 C-26.48919708 10.67004333 -24.48697915 11.94505209 -20.92578125 13.796875 C-18.7712938 13.45941268 -18.7712938 13.45941268 -16.92578125 12.796875 C-17.43109375 12.49394531 -17.93640625 12.19101562 -18.45703125 11.87890625 C-23.75071162 8.46532268 -23.75071162 8.46532268 -24.61328125 5.171875 C-23.92578125 2.796875 -23.92578125 2.796875 -22.30078125 0.984375 C-19.22897913 -0.55152606 -17.32858043 -0.61979429 -13.92578125 -0.203125 C-11.05078125 1.296875 -11.05078125 1.296875 -8.92578125 2.796875 C-9.80078125 9.546875 -9.80078125 9.546875 -10.92578125 11.796875 C-7.96403002 11.18409888 -6.54519342 10.54314978 -3.92578125 8.796875 C-5.57578125 13.086875 -7.22578125 17.376875 -8.92578125 21.796875 C-9.58578125 20.146875 -10.24578125 18.496875 -10.92578125 16.796875 C-11.58578125 16.136875 -12.24578125 15.476875 -12.92578125 14.796875 C-13.91578125 15.126875 -14.90578125 15.456875 -15.92578125 15.796875 C-15.18328125 16.6321875 -15.18328125 16.6321875 -14.42578125 17.484375 C-12.67823758 20.17850483 -12.66359376 21.65062507 -12.92578125 24.796875 C-14.90578125 22.486875 -16.88578125 20.176875 -18.92578125 17.796875 C-22.68607975 18.37795132 -25.45613157 19.44886996 -28.73828125 21.359375 C-29.92357422 22.04193359 -29.92357422 22.04193359 -31.1328125 22.73828125 C-31.72449219 23.08761719 -32.31617188 23.43695312 -32.92578125 23.796875 C-32.92578125 24.786875 -32.92578125 25.776875 -32.92578125 26.796875 C-25.38828002 31.82187582 -17.65185406 31.6775703 -8.92578125 30.796875 C-2.90149437 29.20824824 0.55811608 25.80465759 4.07421875 20.796875 C5.4544942 16.65604866 5.90535798 13.11321151 5.07421875 8.796875 C1.97310769 3.25570476 -2.65810373 -0.34617108 -8.546875 -2.578125 C-17.79807854 -5.00865467 -28.672742 -3.03843745 -35.55078125 3.921875 Z " fill="#C31820" transform="translate(57.92578125,7.203125)"/>
<path d="M0 0 C3.375 2 3.375 2 6 4 C5.67 6.31 5.34 8.62 5 11 C7.21081851 11.10540926 7.21081851 11.10540926 10 10 C9.54636829 11.58468677 9.08688548 13.16769924 8.625 14.75 C8.24214844 16.07257812 8.24214844 16.07257812 7.8515625 17.421875 C7.0790066 19.76080572 6.16374324 21.83442562 5 24 C4.67 24 4.34 24 4 24 C3.835 23.113125 3.67 22.22625 3.5 21.3125 C1.40892925 16.69471877 -1.7083309 15.41252527 -6 13 C-10.8 9.8 -10.8 9.8 -11.625 6.5 C-11 4 -11 4 -8.875 1.6875 C-5.45615401 -0.31921395 -3.90087489 -0.63687753 0 0 Z " fill="#E01A24" transform="translate(44,6)"/>
<path d="M0 0 C2.375 1.5625 2.375 1.5625 4 4 C4.60190112 8.13807018 4.40553614 10.26691544 2.375 13.9375 C0 16 0 16 -3 16.5625 C-6 16 -6 16 -8.375 14.5 C-10.65416433 10.99359333 -10.81753559 8.07099353 -10 4 C-7.31163109 -0.13595217 -4.79825109 -0.79970851 0 0 Z " fill="#0B0E0E" transform="translate(20,44)"/>
<path d="M0 0 C3.98066095 1.57724302 5.60667274 2.41000911 8 6 C8.22370801 9.11470381 7.85723133 11.99969035 7 15 C3.8061451 18.27574861 1.29422473 19.87555531 -3.25 20.3125 C-7.65186937 19.94567755 -9.63573832 18.8035514 -13 16 C-14.24242813 12.2727156 -14.53133458 9.91859249 -14 6 C-10.28238057 0.94756767 -6.29035571 -1.02933093 0 0 Z M-8.375 3.5 C-10.65416433 7.00640667 -10.81753559 9.92900647 -10 14 C-8.54002013 16.62716577 -8.54002013 16.62716577 -6 18 C-3 18.75 -3 18.75 0 18 C3.16196359 15.25408425 3.91691332 13.59199258 4.5 9.4375 C4.25086233 5.99854452 4.25086233 5.99854452 2.375 3.5625 C-1.51263973 1.00484228 -4.4461112 1.01859655 -8.375 3.5 Z " fill="#E1E1E1" transform="translate(20,42)"/>
<path d="M0 0 C1.32 0.33 2.64 0.66 4 1 C4.33 3.31 4.66 5.62 5 8 C8.19199167 5.58443874 10.74716687 3.31996462 13 0 C13.99 0.33 14.98 0.66 16 1 C15.21625 1.7425 14.4325 2.485 13.625 3.25 C11.43495469 5.54433318 10.17268614 7.12158858 9 10 C10.1446875 11.423125 10.1446875 11.423125 11.3125 12.875 C11.95638672 13.67550781 11.95638672 13.67550781 12.61328125 14.4921875 C14.12270545 16.25292107 14.12270545 16.25292107 17 18 C17 18.66 17 19.32 17 20 C13.76761586 19.92303847 11.66772205 19.62561345 9.265625 17.375 C7.78148327 15.62229929 6.36155666 13.84920638 5 12 C4.67 14.31 4.34 16.62 4 19 C2.68 19.33 1.36 19.66 0 20 C0 13.4 0 6.8 0 0 Z " fill="#D8D9D9" transform="translate(53,42)"/>
<path d="M0 0 C3.28844292 1.35244938 4.59545659 2.45492383 6.0625 5.6875 C6.38863281 6.39648438 6.71476562 7.10546875 7.05078125 7.8359375 C7.52064453 8.90714844 7.52064453 8.90714844 8 10 C8.30292969 10.65226562 8.60585938 11.30453125 8.91796875 11.9765625 C10.2105858 14.82881608 11 16.83380676 11 20 C9.125 19.875 9.125 19.875 7 19 C5.75 15.9375 5.75 15.9375 5 13 C2.36 13 -0.28 13 -3 13 C-3.66 15.31 -4.32 17.62 -5 20 C-5.99 20 -6.98 20 -8 20 C-5.83836487 13.06001352 -3.1063786 6.56882431 0 0 Z " fill="#EBEBEB" transform="translate(38,42)"/>
<path d="M0 0 C2 3.75 2 3.75 2 6 C4.55129997 7.09341427 6.89180958 7.9793923 9.625 8.5 C12 9 12 9 15 11 C15 11.66 15 12.32 15 13 C15.99 14.485 15.99 14.485 17 16 C17.07905064 18.33199388 17.08798769 20.66832622 17 23 C16.401875 22.236875 15.80375 21.47375 15.1875 20.6875 C11.47353915 15.9476943 11.47353915 15.9476943 6 14 C6 13.34 6 12.68 6 12 C4.824375 11.566875 4.824375 11.566875 3.625 11.125 C1 10 1 10 -1 8 C-1.1875 4.4375 -1.1875 4.4375 -1 1 C-0.67 0.67 -0.34 0.34 0 0 Z " fill="#E11A24" transform="translate(29,11)"/>
<path d="M0 0 C1.37478516 0.01740234 1.37478516 0.01740234 2.77734375 0.03515625 C3.69644531 0.04417969 4.61554687 0.05320312 5.5625 0.0625 C6.27277344 0.07410156 6.98304687 0.08570312 7.71484375 0.09765625 C7.38484375 1.41765625 7.05484375 2.73765625 6.71484375 4.09765625 C7.37484375 4.09765625 8.03484375 4.09765625 8.71484375 4.09765625 C9.04484375 2.77765625 9.37484375 1.45765625 9.71484375 0.09765625 C11.36484375 0.42765625 13.01484375 0.75765625 14.71484375 1.09765625 C14.71484375 2.41765625 14.71484375 3.73765625 14.71484375 5.09765625 C10.95767044 7.60243846 7.06552568 7.51200691 2.71484375 7.09765625 C-0.22265625 6.34765625 -0.22265625 6.34765625 -2.28515625 5.09765625 C-3.16015625 3.03515625 -3.16015625 3.03515625 -3.28515625 1.09765625 C-2.28515625 0.09765625 -2.28515625 0.09765625 0 0 Z " fill="#383939" transform="translate(53.28515625,72.90234375)"/>
<path d="M0 0 C7.1170295 2.26450938 11.80051302 4.70851766 16 11 C18.26697435 15.5339487 17.27819793 20.97414513 16 25.6875 C13.14404779 30.41767084 9.34958988 34.04297432 3.921875 35.59375 C2 35.875 2 35.875 -1 36 C0.99704988 34.00295012 2.33909237 33.31191187 4.875 32.1875 C8.58335309 30.38380013 10.73792729 28.52883343 13 25 C14.37063254 20.88810238 14.72829531 17.29123018 14 13 C10.83067479 6.79441286 5.30969095 4.25746721 -1 2 C-0.67 1.34 -0.34 0.68 0 0 Z " fill="#CE1922" transform="translate(48,3)"/>
<path d="M0 0 C1.32 0 2.64 0 4 0 C4.33 0.99 4.66 1.98 5 3 C5.66 3 6.32 3 7 3 C7.33 2.01 7.66 1.02 8 0 C10.64 0 13.28 0 16 0 C15.01 0.495 15.01 0.495 14 1 C14 2.32 14 3.64 14 5 C9.49346274 6.44209192 5.79124078 7.34223148 1 7 C0 6 0 6 -0.0625 2.9375 C-0.041875 1.968125 -0.02125 0.99875 0 0 Z " fill="#1A1C1C" transform="translate(15,73)"/>
<path d="M0 0 C3.625 0.25 3.625 0.25 5.625 1.4375 C6.625 3.25 6.625 3.25 6.3125 5.9375 C6.085625 6.700625 5.85875 7.46375 5.625 8.25 C4 9 4 9 1.625 9.25 C-1.625 7.5625 -1.625 7.5625 -4.375 5.25 C-4.375 0.32407407 -4.375 0.32407407 0 0 Z " fill="#0F0708" transform="translate(41.375,7.75)"/>
<path d="M0 0 C1.32 0.33 2.64 0.66 4 1 C4.33 3.97 4.66 6.94 5 10 C4.34 10 3.68 10 3 10 C3.33 12.97 3.66 15.94 4 19 C2.68 19.33 1.36 19.66 0 20 C0 13.4 0 6.8 0 0 Z " fill="#E0E0E0" transform="translate(53,42)"/>
<path d="M0 0 C0.99 0.33 1.98 0.66 3 1 C2.67 1.66 2.34 2.32 2 3 C1.59887589 7.04233721 1.59887589 7.04233721 2 11 C4.33336666 14.00333267 4.33336666 14.00333267 7 16 C0.58045641 15.63662961 0.58045641 15.63662961 -1.9375 12.875 C-3.24458691 9.33817659 -3.41592821 6.74335387 -3 3 C-1.5 1.0625 -1.5 1.0625 0 0 Z " fill="#EDEDED" transform="translate(9,45)"/>
<path d="M0 0 C2.97 0 5.94 0 9 0 C8.01 0.495 8.01 0.495 7 1 C7 1.99 7 2.98 7 4 C7.99 4 8.98 4 10 4 C9.67 4.99 9.34 5.98 9 7 C5.37 7 1.74 7 -2 7 C-1.34 4.69 -0.68 2.38 0 0 Z " fill="#3E3F3F" transform="translate(38,73)"/>
<path d="M0 0 C0.76957031 0.23396484 0.76957031 0.23396484 1.5546875 0.47265625 C5.93013317 1.41624278 10.42150216 1.40312952 14.8828125 1.62109375 C18 2 18 2 20 4 C17.43721301 4.05420701 14.87558517 4.09377007 12.3125 4.125 C11.59126953 4.14175781 10.87003906 4.15851562 10.12695312 4.17578125 C5.95123219 4.21391569 2.7505862 3.8789919 -1 2 C-0.67 1.34 -0.34 0.68 0 0 Z " fill="#AE161D" transform="translate(29,36)"/>
<path d="M0 0 C2.05078125 0.03255208 4.1015625 0.06510417 6.15234375 0.09765625 C5.16234375 0.59265625 5.16234375 0.59265625 4.15234375 1.09765625 C4.15234375 2.41765625 4.15234375 3.73765625 4.15234375 5.09765625 C2.27734375 5.72265625 2.27734375 5.72265625 0.15234375 6.09765625 C-1.84765625 4.09765625 -1.84765625 4.09765625 -2.84765625 1.09765625 C-1.84765625 0.09765625 -1.84765625 0.09765625 0 0 Z " fill="#6E6E6E" transform="translate(24.84765625,72.90234375)"/>
<path d="M0 0 C2.475 0.495 2.475 0.495 5 1 C5 2.98 5 4.96 5 7 C3.35 6.67 1.7 6.34 0 6 C0 4.02 0 2.04 0 0 Z " fill="#3F4040" transform="translate(76,73)"/>
<path d="M0 0 C0.66 0 1.32 0 2 0 C2.66 2.64 3.32 5.28 4 8 C2.02 8 0.04 8 -2 8 C-1.34 5.36 -0.68 2.72 0 0 Z " fill="#282A2A" transform="translate(38,46)"/>
<path d="M0 0 C2.475 0.99 2.475 0.99 5 2 C4.67 3.65 4.34 5.3 4 7 C2.68 6.67 1.36 6.34 0 6 C0 4.02 0 2.04 0 0 Z " fill="#858585" transform="translate(36,63)"/>
<path d="M0 0 C0.66 0 1.32 0 2 0 C2 1.32 2 2.64 2 4 C2.66 4 3.32 4 4 4 C4.33 2.68 4.66 1.36 5 0 C5.1875 2.375 5.1875 2.375 5 5 C2 7 2 7 -0.1875 6.625 C-0.785625 6.41875 -1.38375 6.2125 -2 6 C-1.34 4.02 -0.68 2.04 0 0 Z " fill="#5B5C5C" transform="translate(69,73)"/>
<path d="M0 0 C0.66 0 1.32 0 2 0 C1.54965877 1.62723299 1.08944646 3.25173664 0.625 4.875 C0.36976562 5.77992187 0.11453125 6.68484375 -0.1484375 7.6171875 C-1 10 -1 10 -3 12 C-4.21386936 8.35839192 -3.6674695 7.66834531 -2.0625 4.3125 C-1.49208984 3.10013672 -1.49208984 3.10013672 -0.91015625 1.86328125 C-0.60980469 1.24839844 -0.30945312 0.63351563 0 0 Z " fill="#D2D2D2" transform="translate(38,42)"/>
<path d="M0 0 C2.0625 0.4375 2.0625 0.4375 4 1 C3.01 1 2.02 1 1 1 C1 1.99 1 2.98 1 4 C2.32 3.67 3.64 3.34 5 3 C4.67 3.99 4.34 4.98 4 6 C2.68 5.67 1.36 5.34 0 5 C-0.5625 3.0625 -0.5625 3.0625 -1 1 C-0.67 0.67 -0.34 0.34 0 0 Z " fill="#7F8080" transform="translate(51,73)"/>
<path d="M0 0 C4.67461851 -0.32613618 7.16674383 0.29417212 11 3 C10.34 3.66 9.68 4.32 9 5 C8.34 4.34 7.68 3.68 7 3 C4.68234271 2.28072705 2.34904126 1.6090107 0 1 C0 0.67 0 0.34 0 0 Z " fill="#B8171E" transform="translate(38,6)"/>
<path d="M0 0 C1.32 0 2.64 0 4 0 C4 1.65 4 3.3 4 5 C2.68 5 1.36 5 0 5 C0 3.35 0 1.7 0 0 Z " fill="#939494" transform="translate(38,73)"/>
<path d="M0 0 C2 4 2 4 1.125 6.75 C0.75375 7.4925 0.3825 8.235 0 9 C-0.99 9 -1.98 9 -3 9 C-2.01 6.03 -1.02 3.06 0 0 Z " fill="#C6C7C7" transform="translate(33,53)"/>
<path d="M0 0 C0.66 0 1.32 0 2 0 C1.67 2.31 1.34 4.62 1 7 C-0.32 7.33 -1.64 7.66 -3 8 C-2.34 7.01 -1.68 6.02 -1 5 C-0.61500109 3.34450469 -0.27206865 1.6777567 0 0 Z " fill="#D21922" transform="translate(48,10)"/>
<path d="M0 0 C1.32 0 2.64 0 4 0 C4 1.65 4 3.3 4 5 C2.68 5 1.36 5 0 5 C0 3.35 0 1.7 0 0 Z " fill="#9D9E9E" transform="translate(57,73)"/>
<path d="M0 0 C1.66666667 0 3.33333333 0 5 0 C5 1.65 5 3.3 5 5 C3.68 4.34 2.36 3.68 1 3 C0.67 3.66 0.34 4.32 0 5 C0 3.35 0 1.7 0 0 Z " fill="#959696" transform="translate(15,73)"/>
</svg>
